<svg version="1.1" id="Signature" xmlns="http://www.w3.org/2000/svg" xmlns:xlink="http://www.w3.org/1999/xlink" x="0" y="0" viewBox="0 0 450 107" xml:space="preserve" enable-background="new 0 0 450 107">
  <path d="M126.4,39.3c-1.2,1.2-2.7,3.4-2.7,2.5c0-1,1.2-3.4-1.7-4.1c-2.1-0.5-4.5,1.2-6.9,3c-0.4,0.3-2.2,1.5-2.5,2s-0.9,1.4-0.9,2	c0,1.3,0.7,2.9,3.2,1.5c3.2-1.8,4.8-5.1,5.8-4.3s-0.5,3.3,2.5,3.2c1.1,0,2.5,0,3.8-2.3c1.3-2.3,4.5-6.3,4.2-1.3	c1.3-1.4,10.6-8.8,12.2-7.3c2,2-6.7,7.5-9.8,9.3c-0.2,0.1-0.1,0.5,0.1,0.5c3.4-0.3,8.9-2.2,11-4.4c2.4-2.4,3.6-3.8,3.1-5.9	s-4-4.8-7.8-2.2c-3.3,2.2-4.4,3.5-5.8,5.2c-0.8,1-1.7,2.5-2.3,3.5C132.6,35.1,127.6,38,126.4,39.3z M262.6,25	c-8.6-3.6-49-1.2-60-1.5c1.5,0,13.8-4.8,18.3-6.2c3.1-1,11.3-4.2,15.8-7.3c4-2.7,3.5-10.1-9.1-10c-5.8,0-3.8-0.2-36,2.6	c-5.7,0.5-10.4,1-14.3,1.6c0-0.2,0-0.4,0-0.5c-0.1-1.6-2.4-1.8-2.7-0.2c0,0.2-0.1,0.6-0.1,1.1c-15.3,2.4-15.7,4.9-15.9,7.6	c-0.2,3.5,3.2,9.5,7.8,14.5c1-3.5,0.4-5.7-1.9-9.5s-2.6-5.3,1.1-6.5c1.1-0.4,4.2-0.9,8.5-1.4c-0.6,6.9-2.4,22.6-4.3,38.1	c-33.5,4.7-85.1,11.8-93.6,11.1C64,57.4,76.3,54.7,87,49.7s40-22,45-33.7S121.3,0.7,100.7,0.3C79.9,0,23.9,3,9.9,12.7	s-13.3,20.7,3,35.7c13,12,33.3,23.7,45.6,34.4c0.3,2.3,0.8,4.1,1.4,5.3c4.7,9.7,9.7,15.7,14.7,14.3c4.5-1.2-1.1-9.7-12.3-21.3	c-0.3-2-0.5-4.1-0.5-6.3c0.1-19.4,1.8-48.1,2.1-51.4c0.3-3.3-3.3-3.3-4,0.7c-0.5,3.1-3.1,34.5-1.9,52.7c0,0,0,0-0.1-0.1	C40.2,59.3,1,38.9,6.2,23.3c4.3-12.8,46-17,58.7-17.7c12.7-0.7,56.7-4,61.7,4c2.8,4.5-3.6,11.3-11.4,17.1c-6,4.5-23,15.1-43.8,24.2	c-8.2,3.6-11.2,11.1-1.7,12.7c6.4,1.1,32.6-0.3,59.2-5c13-2.3,27.8-4.3,40.3-6c-2.1,17.7-4,33.8-4.1,34.7c4.3-4.7,4.3-12,5.8-15.7	c0.5-1.3,2-9.1,3.3-19.7c10.7-1.5,18.8-2.7,21-3.6c4.1-1.7,2.9,0.5,1,2.2c-0.4,0.3-0.1,1,0.4,0.9c5.3-1.1,9.4-8.3,1.6-7.7	c-2.3,0.2-11.2,1.4-23.3,3.1c0.3-2.7,0.6-5.5,0.9-8.4c1-10.1,1.7-21.1,1.6-29.5c16.4-2,44.7-4.5,54.5-3.9c1.2,0.1,1.5,1.7,0.4,2.1	c-8.8,4.1-27.5,11.3-39.2,13.9c-3.7,0.8-8.4,5.4,1.2,7.3c3.3,0.7,17.7,0.4,24.9,0.3c28-0.5,35.8-0.8,43.1,1.8	c7.2,2.6,8,11.1-3.2,22.2s-62.8,29.9-83.8,35.9s-66.5,17.2-77,18.2c10.5,1.2,37.8-3.5,51-6.8s29.8-8,52.8-15.5s32.8-12,39.8-15.5	s25.7-9.6,29.7-23.1S271.5,28.8,262.6,25z M66.2,90.7C73,100,67.5,97.6,64,88C64.9,88.9,65.6,89.8,66.2,90.7z M342.8,56.6	c-30.2,1.7-47.3,6.1-56.9,6c-3.4,0-1.9-1.2-2-2.9c-0.2-2.2-3.2-3.2-5.1,0.5c-2.4,4.7-7.5,1.5-9.1-1.2c0.2,3.5,0.6,6.2,4.6,6.9	c4,0.8,6.9-4.3,7.2-1.3c0.3,2.9,3.1,2.1,8.1,1.6c2.3-0.2,26.2-3.2,54-5c31.5-2.1,68.2-3,84.2-2.3C405.4,55.3,371.8,55,342.8,56.6z"/>
</svg>